<?xml version="1.0" standalone="no"?>
<!DOCTYPE svg PUBLIC "-//W3C//DTD SVG 20010904//EN"
 "http://www.w3.org/TR/2001/REC-SVG-20010904/DTD/svg10.dtd">
<svg version="1.0" xmlns="http://www.w3.org/2000/svg"
 width="512.000000pt" height="512.000000pt" viewBox="0 0 512.000000 512.000000"
 preserveAspectRatio="xMidYMid meet">
<metadata>
Created by potrace 1.14, written by Peter Selinger 2001-2017
</metadata>
<g transform="translate(0.000000,512.000000) scale(0.100000,-0.100000)"
fill="#000000" stroke="none">
<path d="M3769 4174 l-178 -177 -93 11 c-51 6 -153 20 -226 31 -96 14 -141 17
-160 10 -15 -6 -122 -105 -239 -222 l-212 -211 -23 21 c-31 28 -60 36 -92 23
-27 -10 -190 -166 -219 -210 -42 -62 -57 -44 486 -588 276 -276 512 -505 525
-508 43 -12 75 8 173 107 127 127 139 158 86 217 l-21 23 211 212 c117 117
216 224 222 239 7 19 4 64 -10 160 -11 73 -25 175 -31 226 l-11 93 177 178
c230 232 228 204 33 398 -194 195 -166 197 -398 -33z"/>
<path d="M2240 2975 c-19 -9 -93 -74 -165 -145 -72 -72 -135 -130 -140 -130
-5 0 -41 32 -81 70 -105 102 -117 100 -267 -53 -115 -117 -126 -148 -74 -205
l21 -23 -211 -212 c-117 -117 -216 -224 -222 -239 -7 -19 -4 -64 10 -160 11
-73 25 -175 31 -226 l11 -93 -177 -178 c-230 -232 -228 -204 -33 -398 194
-195 166 -197 398 33 l178 177 93 -11 c51 -6 153 -20 226 -31 96 -14 141 -17
160 -10 15 6 122 105 239 222 l212 211 23 -21 c57 -52 88 -41 205 74 153 150
155 162 53 267 -38 40 -70 76 -70 81 0 5 58 68 130 140 137 139 166 184 154
239 -19 90 -106 138 -191 105 -15 -6 -90 -72 -166 -147 l-137 -136 -157 157
-157 157 136 137 c137 138 158 168 158 224 0 92 -105 161 -190 124z"/>
</g>
</svg>
